<svg width="208" height="72" viewBox="0 0 208 72" fill="none" xmlns="http://www.w3.org/2000/svg">
<path d="M45.8262 53.2323C46.3874 54.4816 46.9406 55.6828 47.4544 56.8962C47.4908 57.0146 47.5677 57.1159 47.6712 57.182C47.7748 57.2481 47.8983 57.2745 48.0195 57.2565C50.7014 57.2298 53.3846 57.2125 56.0691 57.2045C56.4998 57.2045 56.5354 57.0843 56.3892 56.7119C55.1603 53.5086 53.7376 50.4092 52.3704 47.2779C50.7896 43.6742 49.1694 40.1424 47.731 36.4986C47.5209 35.965 47.4149 35.3952 47.4188 34.8208C47.4188 28.334 47.4188 21.8484 47.4188 15.3643C47.3817 15.1687 47.4037 14.9663 47.4821 14.7836C47.812 15.0823 48.091 15.434 48.3079 15.8247C48.6755 16.3613 49.0272 16.9099 49.3907 17.4544C49.5487 17.6907 49.6911 17.7067 49.8214 17.4224C49.8728 17.3063 49.9519 17.2061 50.0033 17.09C50.9161 14.9037 52.6904 13.8867 54.852 13.3822C56.2673 13.0759 57.7439 13.2891 59.0185 13.9836C60.2931 14.6782 61.2828 15.8089 61.8109 17.1741C62.0165 17.6947 62.1098 18.2538 62.0846 18.8139C62.0594 19.374 61.9162 19.9221 61.6647 20.4216C61.3407 21.144 60.7636 21.7188 60.0452 22.0347C59.3268 22.3505 58.5183 22.385 57.7762 22.1314C57.0994 21.9235 56.4493 21.6345 55.8399 21.2704C55.6794 21.142 55.4888 21.0579 55.2867 21.0262C55.3183 24.2496 57.4523 26.2317 60.2303 25.8753C61.2796 25.7665 62.2873 25.4013 63.1669 24.8114C64.0465 24.2214 64.7717 23.424 65.2806 22.4878C65.313 22.4335 65.3486 22.3813 65.3873 22.3316C65.3873 22.3316 65.411 22.3316 65.4387 22.3316C65.5335 22.4157 65.4901 22.5358 65.4901 22.6319C65.4901 30.1439 65.4901 37.6518 65.4624 45.1637C65.4624 48.259 65.1739 51.3343 64.2097 54.3014C63.0241 57.9692 60.7677 60.8923 57.8869 63.3349C53.4254 67.0789 48.2882 69.4094 42.7084 70.7988C39.0776 71.742 35.3285 72.1334 31.5842 71.9601C23.171 71.4915 15.4059 69.057 8.66418 63.8035C4.64134 60.6722 2.053 56.6318 1.10455 51.5385C0.726325 49.4432 0.534585 47.3178 0.531618 45.1878C0.5039 37.6157 0.531618 30.0437 0.531618 22.4277C0.763454 22.6094 0.958076 22.8352 1.10455 23.0924C1.96603 24.2416 2.91448 25.2827 4.34898 25.6791C6.16281 26.1837 7.90552 26.0796 9.33603 24.6981C9.82141 24.2237 10.1912 23.6413 10.4162 22.9971C10.6412 22.3528 10.7151 21.6644 10.6322 20.9862C10.4306 20.9541 10.3279 21.1223 10.1896 21.2104C9.28975 21.8686 8.21644 22.2395 7.10728 22.2756C6.63157 22.2811 6.16061 22.1803 5.72779 21.9804C5.29489 21.7805 4.9109 21.4864 4.60303 21.119C4.29507 20.7515 4.07095 20.3199 3.94643 19.8547C3.82191 19.3894 3.80012 18.9022 3.88268 18.4274C4.05917 17.0275 4.72992 15.7396 5.77094 14.8018C6.81187 13.864 8.1527 13.3398 9.5455 13.3261C10.6128 13.2731 11.678 13.4681 12.6595 13.8963C13.641 14.3245 14.5128 14.9746 15.2083 15.7967C15.5131 16.1833 15.7619 16.6122 15.9472 17.0701C16.038 17.3384 16.188 17.5821 16.3859 17.7828L18.3618 14.9798C18.504 15.12 18.4408 15.2681 18.4408 15.4003C18.4408 21.5802 18.4408 27.76 18.4408 33.9399C18.4258 34.3537 18.3347 34.7611 18.1721 35.1411C16.8127 38.6769 15.2281 42.1126 13.7343 45.5882C12.1536 49.3161 10.5216 53.0361 8.92899 56.764C8.53381 57.6849 8.56543 57.693 9.53363 57.705C12.0271 57.733 14.5207 57.757 17.0143 57.8091C17.1579 57.8273 17.3034 57.7929 17.4243 57.7122C17.5453 57.6314 17.6339 57.5096 17.6742 57.3686C18.3183 55.8791 19.0257 54.4175 19.575 52.8879C19.6029 52.8302 19.636 52.7753 19.6737 52.7237C19.8867 52.8395 20.0613 53.0164 20.1756 53.2323C22.2976 56.4356 25.4077 58.0734 29.0038 58.8382C31.3056 59.3584 33.6859 59.414 36.0089 59.0018C38.332 58.5895 40.5521 57.7176 42.5424 56.4356C43.3918 55.9132 44.1371 55.2342 44.7395 54.4335C45.0543 53.9915 45.419 53.5883 45.8262 53.2323ZM31.3669 65.8376C31.4024 66.2632 31.3331 66.691 31.1654 67.0829C31.0979 67.2391 30.9875 67.3724 30.8474 67.4668C30.7072 67.5613 30.5433 67.6128 30.375 67.6155C30.2147 67.625 30.0563 67.575 29.9297 67.4748C29.8031 67.3745 29.717 67.2309 29.6874 67.0709C29.636 66.8427 29.5017 66.8506 29.3397 66.8707C29.1065 66.8987 28.8694 66.9427 28.6362 66.9507C28.4031 66.9588 28.3873 67.0509 28.4268 67.2511C28.4919 67.6072 28.6625 67.9348 28.9159 68.1902C29.1694 68.4456 29.4936 68.6167 29.8455 68.6806C30.4071 68.8054 30.9945 68.7094 31.4889 68.412C31.9835 68.1147 32.348 67.6382 32.5089 67.0789C32.9022 65.8353 32.9022 64.4984 32.5089 63.2548C32.4292 62.9477 32.285 62.6616 32.0862 62.4159C31.8874 62.1703 31.6388 61.971 31.3571 61.8315C31.0755 61.692 30.7675 61.6157 30.4541 61.6077C30.1407 61.5997 29.8294 61.6604 29.5412 61.7853C28.3912 62.2578 27.8696 63.7874 28.4268 65.0528C28.9721 66.218 30.0628 66.5183 31.3669 65.8376ZM36.2077 61.7333H34.7852C34.5955 61.7333 34.4571 61.7332 34.4137 61.9895C34.2359 63.0146 34.0422 64.0317 33.8565 65.0528C33.8327 65.1729 33.7775 65.357 33.9592 65.3691C34.3544 65.3931 34.7496 65.6614 35.1447 65.265C35.2969 65.1201 35.49 65.0272 35.6969 64.9991C35.9039 64.9711 36.1143 65.0095 36.2987 65.1089C36.4758 65.2001 36.6234 65.3412 36.7236 65.5152C36.8238 65.6891 36.8724 65.8886 36.8637 66.0899C36.9042 66.4265 36.8551 66.768 36.7215 67.0789C36.6588 67.2357 36.5536 67.3713 36.4179 67.4698C36.2821 67.5684 36.1215 67.6258 35.9549 67.6355C35.7799 67.6654 35.6001 67.6326 35.4465 67.5427C35.2929 67.4528 35.175 67.3115 35.1131 67.1429C34.9748 66.5783 34.6389 66.6745 34.2635 66.7425C34.1553 66.7626 34.0454 66.7707 33.9355 66.7666C33.655 66.7666 33.6391 66.8827 33.7024 67.127C33.9632 68.1481 34.8049 68.7286 36.0062 68.7006C37.4091 68.6646 38.3536 67.4393 38.1876 65.8616C38.1635 65.5533 38.0719 65.2543 37.9194 64.9865C37.7668 64.7186 37.5572 64.4886 37.3058 64.3133C37.0544 64.138 36.7675 64.0217 36.4661 63.9729C36.1647 63.9243 35.8564 63.9443 35.5637 64.0317C35.4767 64.0597 35.3147 64.1037 35.3186 64.0317C35.333 63.7306 35.3754 63.4317 35.4451 63.1387C35.5004 62.9104 35.7059 63.0106 35.8402 63.0066C36.2354 63.0066 36.6306 63.0066 37.0258 63.0066C37.9623 63.0066 37.9544 63.0066 37.9109 62.0496C37.9109 61.8253 37.8438 61.7372 37.6146 61.7452C37.1522 61.7412 36.678 61.7333 36.2077 61.7333ZM40.7364 67.3392C41.0217 66.9288 41.3607 66.5597 41.7441 66.242C42.3624 65.7404 42.8519 65.0948 43.1707 64.36C43.276 64.1175 43.3312 63.8558 43.3332 63.5908C43.335 63.3259 43.2836 63.0633 43.1819 62.8193C43.0801 62.5753 42.9303 62.3548 42.7415 62.1715C42.5527 61.9882 42.3289 61.8459 42.084 61.7533C40.8194 61.2888 39.4443 61.8173 39.057 62.9185C38.8159 63.5992 38.8356 63.6112 39.5311 63.7194C39.9263 63.7874 40.2306 63.8355 40.3215 63.2629C40.3887 62.8224 40.8471 62.6262 41.3411 62.7223C41.5295 62.749 41.7015 62.8457 41.8235 62.9938C41.9455 63.1417 42.0087 63.3305 42.001 63.5231C42.0175 63.7351 41.9874 63.948 41.913 64.1468C41.8385 64.3454 41.7214 64.525 41.5703 64.6723C41.0526 65.2129 40.5151 65.7294 39.9896 66.2741C39.4569 66.7781 39.0609 67.4124 38.8396 68.116C38.7369 68.4804 38.7566 68.6205 39.1913 68.6125C40.2938 68.5805 41.3963 68.6125 42.5029 68.6125C43.3406 68.6125 43.3209 68.6125 43.3288 67.7516C43.3288 67.4232 43.222 67.3512 42.9336 67.3512C42.2144 67.3632 41.5149 67.3471 40.7364 67.3471V67.3392ZM25.1074 63.5992V67.7115C25.1074 68.5925 25.1074 68.5724 25.9609 68.5925C26.3087 68.5925 26.4154 68.5164 26.4114 68.148C26.4114 66.1459 26.4114 64.1438 26.4114 62.1096C26.4114 61.9335 26.5497 61.6091 26.2336 61.6131C25.9174 61.6171 25.4907 61.3649 25.2654 61.8213C25.0393 62.3404 24.6308 62.7557 24.1194 62.9866C23.4239 63.2669 23.3567 63.7594 23.4358 64.3721C23.4358 64.42 23.4358 64.4641 23.4595 64.5322C24.0643 64.3387 24.6247 64.0241 25.1074 63.6073V63.5992Z" fill="#3056D1"/>
<path d="M51.5325 56.6799C50.8845 56.6799 50.2364 56.6598 49.5922 56.6799C49.4627 56.6978 49.3312 56.667 49.2227 56.5932C49.1141 56.5193 49.0362 56.4077 49.0034 56.2795C46.9934 51.9335 44.9727 47.5942 42.9415 43.2617C42.8269 43.0174 42.6649 42.7932 42.57 42.541C42.5276 42.3999 42.4581 42.2688 42.3656 42.1551C42.2732 42.0413 42.1594 41.9471 42.0309 41.8779C41.9025 41.8087 41.7618 41.7659 41.617 41.7519C41.4721 41.7378 41.326 41.7529 41.187 41.7961C40.9686 41.8294 40.7477 41.8428 40.527 41.8362H24.8979C24.2657 41.8362 23.6373 41.8162 23.005 41.8042C22.8273 41.8042 22.6692 41.8042 22.5862 42.0124C21.6852 44.3669 20.4759 46.5692 19.4247 48.8596C18.4408 51.0299 17.3699 53.1641 16.461 55.3705C15.9592 56.5718 15.6074 56.804 14.2836 56.752C13.3035 56.7119 12.3078 56.6559 11.3475 56.6559C10.8298 56.6559 10.8298 56.6558 11.0471 56.1713L16.1844 45.1357C20.3258 36.2116 24.4711 27.2862 28.6204 18.3594C29.6716 16.1051 30.6911 13.8386 31.7186 11.5722C31.7628 11.4505 31.8441 11.3461 31.9506 11.2742C32.0571 11.2022 32.1834 11.1663 32.3113 11.1718C32.9476 11.1038 33.2677 11.336 33.5443 11.9406C36.7571 18.9881 40.0093 26.0194 43.2339 33.0629C46.7563 40.7564 50.268 48.4539 53.7692 56.1554C53.9985 56.6598 53.9985 56.6598 53.4294 56.6598L51.5325 56.6799ZM40.1002 37.3354C40.0622 36.9694 39.9506 36.6151 39.7722 36.2944C39.3257 35.2572 38.7171 34.2922 38.2429 33.2832C37.6659 32.0458 37.1404 30.7765 36.5713 29.5312C35.3621 26.8924 34.1765 24.2456 32.8093 21.6909C32.6986 21.4787 32.6235 21.2225 32.3667 21.1063C32.0387 22.0513 31.6277 22.9283 31.2246 23.8132C29.7506 27.0646 28.0633 30.2199 26.6959 33.5154C26.6035 33.7506 26.4884 33.9759 26.3522 34.1881C25.794 35.0955 25.333 36.0606 24.9769 37.0672C24.8821 37.3074 24.9769 37.3795 25.1983 37.3675C25.6725 37.3475 26.1427 37.3314 26.6169 37.3274L38.97 37.2554C39.3494 37.2514 39.709 37.4355 40.1002 37.3354Z" fill="#3056D1"/>
<path d="M0.5 16.2131V0.684716C0.5 -0.0881006 0.5 -0.11613 1.19551 0.284293C3.39265 1.59768 5.57792 2.9431 7.77117 4.2645C11.2447 6.3467 14.6393 8.56504 18.1523 10.5791C18.2907 10.6553 18.421 10.7193 18.417 10.9275C18.417 11.9446 18.417 12.9657 18.417 13.9908C18.2274 14.0148 18.1642 13.8826 18.097 13.7945C15.8129 10.7394 12.6871 8.74526 9.52566 6.79518C7.10787 5.24722 4.61379 3.8252 2.053 2.53467C1.84355 2.43457 1.57882 2.20232 1.41285 2.32244C1.24688 2.44257 1.37326 2.79094 1.41285 3.0352C1.5172 4.56723 1.83795 6.07617 2.3652 7.51593C2.58754 8.16772 2.93873 8.76669 3.3974 9.27613C3.85607 9.78565 4.41247 10.1949 5.03262 10.4791C5.23021 10.5712 5.42772 10.6913 5.67278 10.8314C4.61778 11.5247 3.63881 12.3302 2.7525 13.234C1.90339 14.136 1.18856 15.1584 0.630372 16.2692L0.5 16.2131Z" fill="#3056D1"/>
<path d="M64.5733 2.1823C63.4115 2.69885 62.3642 3.25143 61.3289 3.82403C57.7123 5.75383 54.2541 7.97394 50.9872 10.4631C49.9276 11.3005 48.985 12.2797 48.1854 13.3741C47.9827 13.6742 47.7268 13.9334 47.4307 14.1389V11.4961C47.4307 11.3199 47.5769 11.2639 47.6955 11.1918C53.4176 7.58802 59.033 3.82003 64.8143 0.316325C65.0096 0.166944 65.2328 0.0593306 65.4703 0V16.3934C65.2707 16.1511 65.1057 15.8815 64.9803 15.5925C63.9687 13.6344 62.4196 12.2049 60.6334 11.0316C60.3568 10.8515 60.3173 10.7714 60.6017 10.6032C60.7125 10.5392 60.8112 10.4551 60.9218 10.399C62.7555 9.50203 63.6446 7.91237 64.0833 5.99434C64.3595 4.7412 64.5236 3.46533 64.5733 2.1823Z" fill="#3056D1"/>
<path d="M31.2958 64.2039C31.2809 64.3627 31.2505 64.5197 31.2049 64.6723C31.1543 64.8431 31.0514 64.9931 30.9112 65.1007C30.7709 65.2084 30.6005 65.268 30.4246 65.2711C30.2487 65.2743 30.0764 65.2207 29.9326 65.1181C29.7886 65.0155 29.6807 64.8692 29.6242 64.7004C29.4466 64.2354 29.4466 63.7199 29.6242 63.2548C29.6634 63.1237 29.7366 63.0055 29.836 62.9127C29.9354 62.8198 30.0576 62.7555 30.1898 62.7265C30.322 62.6975 30.4594 62.7049 30.5879 62.7478C30.7163 62.7907 30.8311 62.8676 30.9203 62.9705C31.0681 63.1358 31.1783 63.3319 31.2431 63.545C31.308 63.7581 31.3259 63.983 31.2958 64.2039Z" fill="#3056D1"/>
<path d="M89.5 31.9196C90.0945 30.9285 90.6185 29.8976 91.0683 28.8336C92.3229 26.1343 93.6933 23.4876 94.8418 20.7452C94.948 20.4968 95.0976 20.2675 95.3774 20.2962C95.6573 20.3248 95.5994 20.5637 95.6718 20.7214C97.0197 23.607 98.3676 26.4943 99.7155 29.3831C100.077 30.1614 100.454 30.9315 100.83 31.7046C100.985 32.0153 100.97 32.1304 100.546 32.1824C100.269 32.2466 99.9788 32.2017 99.7355 32.0571C99.4923 31.9125 99.3155 31.6802 99.2426 31.4093C98.8856 30.4823 98.4223 29.5981 98.0314 28.6904C97.9253 28.4514 97.8191 28.332 97.5489 28.3368C96.0691 28.3368 94.5861 28.3368 93.0998 28.3368C92.9773 28.3246 92.8543 28.3545 92.7515 28.4215C92.6487 28.4885 92.5723 28.5885 92.5352 28.7047C92.0913 29.6602 91.6136 30.6157 91.1889 31.5712C90.9911 32.049 90.745 32.2924 90.2238 32.1926C89.9926 32.1732 89.7602 32.1732 89.529 32.1926L89.5 31.9196ZM93.2784 27.1424H96.8396C97.076 27.1424 97.2304 27.1137 97.1001 26.8271C96.5597 25.6518 96.0289 24.467 95.4836 23.2917C95.3678 23.0433 95.1844 22.9573 95.059 23.2917C94.5716 24.5722 93.9105 25.7761 93.288 27.1185L93.2784 27.1424Z" fill="#3056D1"/>
<path d="M113.931 20.3057C114.12 21.4476 114.317 22.532 114.477 23.6214C114.856 26.2841 115.226 28.9483 115.587 31.614C115.615 31.8147 115.809 32.1967 115.35 32.1304C115.017 32.0775 114.472 32.4982 114.385 31.7383C114.057 29.1872 113.695 26.6408 113.338 24.0465C113.086 24.264 112.892 24.5398 112.773 24.8492C111.673 27.1997 110.399 29.469 109.367 31.8534C109.299 32.0153 109.246 32.1539 109.014 32.1447C108.783 32.1345 108.696 31.9675 108.609 31.8004C107.753 30.1319 106.901 28.4658 106.051 26.8032C105.569 25.905 105.125 25.0068 104.604 24.0131C104.367 25.0498 104.205 26.1019 104.121 27.1615C103.943 28.5613 103.798 29.9658 103.639 31.3654C103.547 32.1162 103.19 32.3209 102.452 32.1539C102.205 32.0968 102.263 31.9532 102.292 31.8147C102.64 29.9037 102.847 27.9928 103.098 26.0818C103.349 24.1707 103.552 22.2932 103.919 20.406C104.174 20.4729 104.189 20.7118 104.28 20.8839C105.738 23.6802 107.185 26.4767 108.623 29.2732C108.71 29.4452 108.73 29.7509 108.995 29.7275C109.26 29.703 109.251 29.4356 109.338 29.2493C110.626 26.5452 111.919 23.8411 113.343 21.1991C113.48 20.8672 113.68 20.564 113.931 20.3057Z" fill="#3056D1"/>
<path d="M195.559 26.3254C195.777 30.0708 192.181 32.5359 189.286 32.5033C187.641 32.4686 186.074 31.8004 184.919 30.6402C183.763 29.4791 183.111 27.918 183.101 26.2886C183.091 24.6592 183.724 23.0902 184.865 21.9158C186.005 20.7412 187.564 20.0539 189.209 20C192.423 20 195.748 22.4079 195.559 26.3254ZM189.233 31.2228C189.9 31.2483 190.565 31.1383 191.188 30.8999C191.811 30.6616 192.378 30.2999 192.854 29.8365C193.331 29.3737 193.706 28.8192 193.958 28.2071C194.209 27.5951 194.333 26.9384 194.319 26.2777C194.327 24.9574 193.809 23.6872 192.878 22.7421C191.947 21.7969 190.677 21.2529 189.344 21.2278C186.338 21.2278 184.369 23.3443 184.364 26.6073C184.397 27.8569 184.927 29.0428 185.839 29.9068C186.751 30.7716 187.971 31.2442 189.233 31.2228Z" fill="#3056D1"/>
<path d="M167.296 20C168.123 20.0041 168.941 20.1693 169.704 20.4864C170.466 20.8035 171.158 21.2662 171.74 21.848C172.322 22.4299 172.782 23.1195 173.095 23.8774C173.408 24.6354 173.566 25.447 173.562 26.2657C173.558 27.0845 173.391 27.8944 173.071 28.6492C172.751 29.4042 172.283 30.0891 171.696 30.6656C171.108 31.2412 170.412 31.6975 169.646 32.0072C168.88 32.3158 168.061 32.4737 167.234 32.4697C163.687 32.4697 161.004 29.6837 161.043 26.0674C161.08 24.4485 161.755 22.9082 162.923 21.7748C164.092 20.6413 165.661 20.0045 167.296 20ZM167.296 31.2228C167.964 31.2432 168.628 31.1281 169.249 30.8847C169.871 30.6422 170.435 30.2765 170.908 29.81C171.381 29.3431 171.753 28.7857 172.001 28.1718C172.248 27.5579 172.367 26.9004 172.349 26.2395C172.345 24.9186 171.82 23.6515 170.884 22.7095C169.949 21.7674 168.679 21.2253 167.345 21.1991C164.372 21.1991 162.428 23.3729 162.379 26.6264C162.365 28.8241 164.57 31.3899 167.292 31.2228H167.296Z" fill="#3056D1"/>
<path d="M117.459 39.7886C120.243 42.5735 122.579 45.7557 125.348 48.6028C125.423 48.4185 125.443 48.2157 125.406 48.0202C125.406 45.4644 125.406 42.9036 125.406 40.3478C125.406 39.9322 125.493 39.7356 125.937 39.7835C126.381 39.8313 126.772 39.6785 126.772 40.3427C126.772 43.9884 126.772 47.6382 126.772 51.2839C126.772 51.4173 126.864 51.6129 126.642 51.6659C126.54 51.6934 126.433 51.6863 126.335 51.6475C126.238 51.6088 126.155 51.5396 126.101 51.4509C123.833 48.6273 121.276 46.0379 118.974 43.257C118.875 43.1602 118.77 43.0696 118.66 42.9851V43.6828C118.66 46.1622 118.66 48.6466 118.66 51.126C118.66 51.7372 118.371 51.6944 117.966 51.6944C117.56 51.6944 117.266 51.7372 117.271 51.1301C117.304 47.3896 117.271 43.6492 117.271 39.9077L117.459 39.7886Z" fill="#3056D1"/>
<path d="M131.482 23.4637V24.1612C131.482 26.6408 131.482 29.1251 131.482 31.6048C131.482 32.0102 131.419 32.1824 130.956 32.159C129.957 32.106 130.126 32.269 130.121 31.3471C130.121 27.8431 130.121 24.33 130.121 20.8074C130.121 20.6258 129.986 20.3296 130.28 20.2675C130.575 20.2054 130.579 20.4968 130.705 20.6402C131.776 21.8441 132.847 23.0289 133.909 24.252C135.183 25.6852 136.447 27.1711 137.726 28.6235C137.842 28.7524 137.948 29.0105 138.165 28.9149C138.382 28.8194 138.242 28.6043 138.242 28.4372C138.242 25.8955 138.242 23.3585 138.242 20.793C138.242 20.4252 138.242 20.1576 138.749 20.2149C139.256 20.2723 139.603 20.1576 139.598 20.8312C139.579 24.4558 139.579 28.0836 139.598 31.7148C139.598 32.159 139.439 32.1488 139.116 31.9776C138.874 31.8198 138.663 31.6211 138.493 31.3899C136.322 28.9085 134.147 26.4321 131.969 23.9606C131.877 23.8459 131.737 23.7169 131.482 23.4637Z" fill="#3056D1"/>
<path d="M157.245 46.2763C158.538 48.1587 160.01 49.7732 161.284 51.5314C160.319 51.8421 159.836 51.6995 159.247 50.9539L156.092 46.8121C155.978 46.6582 155.849 46.5177 155.706 46.3914C155.625 46.3201 155.525 46.2732 155.419 46.2559C155.312 46.2376 155.202 46.2498 155.102 46.2905C154.909 46.372 155.006 46.592 155.006 46.7683C155.006 48.2402 155.006 49.7111 155.006 51.183C155.006 51.5752 154.919 51.7138 154.499 51.6995C153.534 51.6557 153.664 51.7942 153.664 50.8825C153.664 47.4426 153.664 44.0027 153.664 40.5678C153.664 40.0035 153.814 39.7977 154.412 39.813C155.78 39.7651 157.149 39.8171 158.509 39.9699C160.642 40.3376 161.815 42.2394 161.076 44.1697C160.536 45.5795 159.349 46.0807 157.954 46.2579C157.742 46.262 157.539 46.2569 157.245 46.2763ZM154.987 43.037V44.5802C154.987 44.7432 154.938 44.9622 155.213 44.9531C156.338 44.9052 157.477 45.1822 158.591 44.8054C159.508 44.4998 159.962 43.9263 159.923 43.0991C159.875 42.0102 159.378 41.4031 158.369 41.1882C157.338 41.0659 156.298 41.0344 155.262 41.0924C155.011 41.0924 154.987 41.2309 154.987 41.4224C154.991 41.9674 154.987 42.5022 154.987 43.037Z" fill="#3056D1"/>
<path d="M150.253 26.2107C150.253 24.3953 150.253 22.5846 150.253 20.7692C150.253 20.2435 150.484 20.2389 150.87 20.2437C151.257 20.2484 151.517 20.2437 151.503 20.7644C151.459 22.1212 151.503 23.478 151.479 24.8301C151.479 25.1789 151.58 25.3078 151.932 25.2792C153.631 25.2792 155.31 25.2792 157.018 25.2792C157.394 25.2792 157.462 25.1501 157.457 24.8013C157.457 23.5784 157.423 22.3601 157.423 21.137C157.423 20.2723 157.544 20.1815 158.389 20.1815C158.871 20.1815 158.808 20.4442 158.808 20.7357C158.808 23.8889 158.808 27.0389 158.808 30.1859C158.808 30.6636 158.779 31.1413 158.808 31.6191C158.837 32.0968 158.673 32.1641 158.287 32.0968C158.153 32.0775 158.016 32.0775 157.882 32.0968C157.51 32.1498 157.433 31.9726 157.438 31.6191C157.438 30.0708 157.438 28.5231 157.438 26.98C157.438 26.5595 157.37 26.378 156.878 26.3876C155.262 26.421 153.645 26.4162 152.053 26.3876C151.57 26.3876 151.469 26.5309 151.479 26.9704C151.503 28.4802 151.479 29.9852 151.479 31.4948C151.479 31.9726 151.334 32.1019 150.866 32.0877C150.398 32.0724 150.219 32.049 150.234 31.5182C150.301 29.7988 150.253 28.0071 150.253 26.2107Z" fill="#3056D1"/>
<path d="M128.389 32.1203C127.076 32.2018 127.076 32.2017 126.565 31.1312C126.179 30.3193 125.773 29.5216 125.406 28.6999C125.365 28.576 125.281 28.4705 125.169 28.4015C125.057 28.3327 124.924 28.3046 124.794 28.3225C123.346 28.3225 121.898 28.3225 120.451 28.3225C120.309 28.3097 120.168 28.3469 120.051 28.4273C119.935 28.5077 119.851 28.6262 119.814 28.762C119.389 29.7173 118.945 30.7115 118.501 31.6863C118.347 31.8982 118.127 32.0561 117.875 32.1366C117.624 32.216 117.352 32.214 117.102 32.1304C116.899 31.996 117.054 31.8198 117.102 31.6812C117.681 30.3957 118.25 29.1012 118.853 27.8256C119.925 25.5674 121.01 23.3156 122.111 21.0701C122.246 20.793 122.357 20.3487 122.695 20.3726C123.032 20.3965 123.09 20.8504 123.22 21.1322C124.868 24.6008 126.495 28.074 128.104 31.5519C128.205 31.7383 128.282 31.8911 128.389 32.1203ZM122.598 23.1149C122.019 24.3093 121.459 25.5037 120.875 26.6646C120.668 27.0804 120.837 27.1424 121.213 27.1424C122.14 27.1424 123.066 27.1138 123.988 27.1424C124.504 27.1424 124.644 27.0468 124.408 26.5595C123.964 25.6518 123.553 24.7249 123.114 23.8125C123.015 23.5373 122.829 23.3012 122.583 23.1388L122.598 23.1149Z" fill="#3056D1"/>
<path d="M144.863 45.6742C144.863 43.8784 144.863 42.0866 144.863 40.2907C144.863 39.9271 144.945 39.813 145.345 39.813C147.275 39.813 149.239 39.8456 151.184 39.813C151.778 39.813 151.667 40.1471 151.667 40.467C151.667 40.7868 151.816 41.1546 151.208 41.1362C149.688 41.0975 148.163 41.1362 146.638 41.1362C146.233 41.1362 146.059 41.1984 146.079 41.6567C146.122 42.5165 146.108 43.3762 146.079 44.237C146.079 44.6138 146.185 44.7147 146.561 44.7147C148.048 44.6903 149.529 44.7147 151.015 44.7147C151.474 44.7147 151.691 44.7524 151.691 45.3167C151.691 45.88 151.464 45.9513 150.986 45.9421C149.5 45.9421 148.019 45.9421 146.532 45.9421C146.18 45.9421 146.074 46.0277 146.079 46.3863C146.079 47.6097 146.079 48.832 146.079 50.0554C146.079 50.4476 146.166 50.5759 146.561 50.5668C148.081 50.5668 149.606 50.5668 151.126 50.5668C151.667 50.5668 151.643 50.8062 151.657 51.178C151.671 51.5508 151.604 51.78 151.107 51.7708C149.196 51.7423 147.287 51.7423 145.379 51.7708C144.921 51.7708 144.843 51.6129 144.848 51.2116C144.872 49.3057 144.863 47.5047 144.863 45.6742Z" fill="#3056D1"/>
<path d="M106.515 44.3083C106.515 42.9514 106.515 41.5946 106.515 40.2378C106.515 39.6643 106.862 39.8314 107.156 39.8079C107.451 39.7835 107.726 39.7743 107.721 40.2571C107.692 42.7416 107.596 45.221 107.798 47.7003C107.798 47.9866 107.851 48.2738 107.89 48.555C108.112 50.0411 109.038 50.7909 110.597 50.7532C110.923 50.7634 111.247 50.7094 111.552 50.5943C111.857 50.4802 112.136 50.306 112.372 50.0839C112.608 49.8619 112.798 49.596 112.93 49.3006C113.062 49.0052 113.133 48.6874 113.14 48.3645C113.193 47.6616 113.174 46.9312 113.179 46.2477C113.179 44.2991 113.179 42.3494 113.179 40.4048C113.179 39.9658 113.227 39.7315 113.758 39.7651C114.288 39.7977 114.549 39.7977 114.539 40.4385C114.501 42.9565 114.636 45.4787 114.404 47.9967C114.293 49.1957 114.076 50.3467 113.039 51.1545C111.668 52.22 110.143 52.1813 108.667 51.5752C107.19 50.9681 106.611 49.7783 106.553 48.2972C106.5 46.9649 106.553 45.6264 106.553 44.2889L106.515 44.3083Z" fill="#3056D1"/>
<path d="M165.994 51.9806C165.257 51.9582 164.543 51.726 163.935 51.3144C163.327 50.9019 162.851 50.3253 162.563 49.6541C162.485 49.4636 162.529 49.3821 162.683 49.2914C162.9 49.1305 163.146 49.0123 163.407 48.942C163.822 48.8707 163.745 49.2812 163.89 49.4677C164.778 50.7287 165.887 51.0873 167.118 50.4761C167.323 50.3895 167.509 50.2632 167.664 50.1043C167.819 49.9444 167.94 49.7559 168.019 49.5492C168.099 49.3424 168.135 49.1223 168.126 48.9013C168.117 48.6802 168.063 48.4633 167.967 48.2636C167.651 47.5404 167.152 46.9088 166.52 46.4291C165.94 45.9513 165.332 45.5174 164.734 45.0631C164.347 44.7921 164.019 44.4478 163.771 44.0485C163.522 43.6492 163.357 43.2051 163.286 42.7416C163.177 42.2333 163.226 41.7056 163.428 41.2269C163.63 40.7471 163.974 40.3407 164.416 40.0605C164.861 39.7335 165.393 39.5431 165.946 39.5125C166.499 39.482 167.049 39.6134 167.528 39.8894C168.115 40.2225 168.626 40.6738 169.029 41.2126C169.246 41.4754 169.178 41.6231 168.942 41.8146C168.363 42.2924 168.305 42.2924 167.832 41.7331C167.567 41.3654 167.188 41.0934 166.752 40.96C166.316 40.8255 165.848 40.8378 165.419 40.9926C165.247 41.0435 165.088 41.1281 164.95 41.2411C164.812 41.3552 164.699 41.4948 164.617 41.6537C164.536 41.8116 164.487 41.9837 164.475 42.161C164.463 42.3382 164.487 42.5165 164.546 42.6835C164.747 43.3069 165.157 43.8427 165.709 44.2033C166.418 44.729 167.157 45.2495 167.789 45.8413C168.176 46.1876 168.527 46.5717 168.836 46.9883C169.477 47.8908 169.854 48.8616 169.318 49.9311C169.071 50.4955 168.675 50.9834 168.171 51.344C167.668 51.7046 167.076 51.9246 166.457 51.9806C166.302 51.9949 166.143 51.9806 165.994 51.9806Z" fill="#3056D1"/>
<path d="M202.305 29.2733L205.717 21.5479C205.821 21.3659 205.903 21.1717 205.959 20.9698C206.05 20.3488 206.402 20.2149 206.996 20.2293C207.589 20.2437 207.57 20.4204 207.386 20.836C206.701 22.3712 206.023 23.9065 205.35 25.4417C204.419 27.5771 203.473 29.703 202.571 31.8483C202.377 32.3026 202.204 32.1162 201.996 31.9298C201.921 31.8422 201.865 31.7393 201.833 31.6283C200.332 28.141 198.817 24.6581 197.34 21.1609C196.915 20.1529 196.785 20.2771 197.996 20.2437C198.378 20.2437 198.436 20.473 198.537 20.7214L201.915 28.6665C201.987 28.8997 202.123 29.1094 202.305 29.2733Z" fill="#3056D1"/>
<path d="M137.654 48.8229C138.937 45.8658 140.187 42.9749 141.442 40.0901C141.543 39.8558 142.619 39.6551 142.773 39.8507C142.928 40.0463 142.773 40.2235 142.691 40.3814C142.151 41.6425 141.586 42.8985 141.036 44.1606C140.008 46.5197 138.99 48.8901 137.962 51.2503C137.895 51.4031 137.919 51.6516 137.634 51.6516C137.35 51.6516 137.267 51.4367 137.152 51.2218L132.867 41.2218C132.717 40.8734 132.563 40.52 132.423 40.1665C132.345 39.9556 132.37 39.8273 132.664 39.8028C133.6 39.7213 133.629 39.7264 133.986 40.5719C135.019 42.9932 136.055 45.4135 137.094 47.8338C137.221 48.1933 137.41 48.5285 137.654 48.8229Z" fill="#3056D1"/>
<path d="M141.335 32.1488C141.963 30.8113 142.546 29.555 143.14 28.2985C144.105 26.2442 145.07 24.1851 146.035 22.1403C146.262 21.6625 146.146 21.567 145.654 21.5861C144.655 21.6195 143.652 21.6195 142.653 21.6147C142.504 21.6271 142.354 21.5993 142.22 21.5342C142.086 21.469 141.973 21.369 141.891 21.245C141.81 21.121 141.764 20.9774 141.759 20.8297C141.754 20.682 141.789 20.5355 141.861 20.406C141.934 20.2293 142.064 20.2532 142.189 20.2532H147.792C148.072 20.2532 148.134 20.363 148.043 20.6019C147.859 21.0796 147.7 21.5574 147.483 21.9731C146.117 24.7489 144.858 27.5723 143.584 30.3865C143.323 30.9549 143.328 30.9549 143.96 30.96C145.157 30.96 146.373 30.96 147.546 30.96C148.101 30.96 147.985 31.289 147.99 31.5997C147.995 31.9104 148.067 32.1875 147.555 32.1783C145.534 32.1304 143.492 32.1488 141.335 32.1488Z" fill="#3056D1"/>
<path d="M186.265 44.6383C186.984 43.2041 187.911 41.9766 188.678 40.6483C189.238 39.6928 189.257 39.6643 190.478 39.8558C190.413 40.1512 190.283 40.4283 190.097 40.6676C189.238 42.0723 188.389 43.477 187.501 44.8624C186.989 45.6284 186.733 46.534 186.767 47.4518C186.816 48.6935 186.767 49.9362 186.83 51.1739C186.83 51.6842 186.584 51.6516 186.236 51.6516C185.889 51.6516 185.604 51.7321 185.619 51.1739C185.662 49.7407 185.619 48.2687 185.643 46.8212C185.657 46.3639 185.531 45.9116 185.281 45.5266C184.248 43.8957 183.224 42.2598 182.207 40.6198C182.058 40.3814 181.768 40.0901 181.884 39.87C182 39.65 182.405 39.8171 182.675 39.7692C183.047 39.7122 183.225 39.8701 183.423 40.1991C184.234 41.561 185.102 42.8944 185.952 44.2319C186.048 44.3734 186.153 44.5089 186.265 44.6383Z" fill="#3056D1"/>
<path d="M177.087 46.4148C177.087 44.8145 177.087 43.2091 177.087 41.6038C177.087 41.1882 176.962 41.0781 176.561 41.126C176.063 41.178 175.561 41.1943 175.061 41.1739C174.926 41.1515 174.798 41.0975 174.689 41.017C174.579 40.9366 174.489 40.8316 174.428 40.7104C174.367 40.5892 174.336 40.4558 174.337 40.3203C174.338 40.1858 174.371 40.0524 174.433 39.9322C174.52 39.7835 174.665 39.8273 174.795 39.8273C176.725 39.8273 178.656 39.8273 180.586 39.8273C180.899 39.8273 181.001 39.9363 180.977 40.2286C180.962 40.3997 180.962 40.5729 180.977 40.744C181.006 41.0405 180.885 41.1505 180.581 41.1403C180.098 41.1403 179.577 41.1688 179.08 41.1403C178.583 41.1118 178.424 41.231 178.429 41.7566C178.458 44.8909 178.429 48.0253 178.429 51.1596C178.429 51.3409 178.569 51.6374 178.27 51.6893C177.895 51.781 177.501 51.7647 177.136 51.6414C177.068 51.6078 177.082 51.3603 177.082 51.2116C177.086 49.6001 177.087 48.0008 177.087 46.4148Z" fill="#3056D1"/>
<path d="M175.823 26.2442C175.823 24.4861 175.823 22.7279 175.823 20.9889C175.825 20.8467 175.864 20.7074 175.937 20.585C176.011 20.4626 176.115 20.361 176.239 20.2906C176.364 20.2201 176.505 20.1832 176.649 20.1833C176.793 20.1834 176.934 20.2206 177.058 20.2914C177.271 20.4156 177.174 20.6354 177.174 20.8122C177.174 23.9653 177.174 27.1185 177.174 30.2714C177.174 30.8734 177.348 31.0028 177.913 30.9784C179.013 30.9356 180.113 30.9784 181.208 30.9498C181.763 30.9264 181.725 31.2177 181.72 31.5804C181.715 31.944 181.768 32.1875 181.237 32.1783C179.597 32.1396 177.961 32.1488 176.32 32.1783C175.891 32.1783 175.837 32.0347 175.837 31.6527C175.833 29.8273 175.823 28.0406 175.823 26.2442Z" fill="#3056D1"/>
<path d="M130.603 45.7944C130.603 47.5903 130.603 49.3821 130.603 51.1739C130.603 51.7993 130.246 51.6516 129.904 51.6516C129.561 51.6516 129.257 51.7178 129.262 51.1739C129.291 47.5475 129.262 43.9212 129.262 40.2999C129.262 39.9505 129.315 39.7356 129.745 39.8222C130.174 39.9077 130.608 39.6022 130.603 40.2999C130.599 42.1294 130.603 43.964 130.603 45.7944Z" fill="#3056D1"/>
<path d="M171.765 45.6793C171.765 43.8876 171.765 42.0917 171.765 40.2948C171.765 39.8171 171.992 39.7886 172.354 39.8171C172.715 39.8456 173.01 39.7356 173.005 40.2948C172.976 43.9263 172.976 47.5536 173.005 51.178C173.005 51.7514 172.701 51.6557 172.354 51.6557C172.006 51.6557 171.755 51.6557 171.765 51.178C171.784 49.3434 171.765 47.5047 171.765 45.6793Z" fill="#3056D1"/>
</svg>
